<svg width="1277" height="251" viewBox="0 0 1277 251" fill="none" xmlns="http://www.w3.org/2000/svg">
<path d="M72.253 27C70.2688 27 68.2851 27.7589 66.7658 29.2767L57.2498 38.7852C54.2108 41.8208 54.2108 46.7077 57.2498 49.7438L102.517 94.9676C103.428 95.8782 104.826 96.8765 106.368 97.7559C103.734 99.0264 100.777 97.9562 98.0952 95.2763L71.6193 68.8183H6.40024C2.85337 68.8183 0 71.6716 0 75.2151V94.4022C0 97.9451 2.85337 100.799 6.40024 100.799H75.1334L18.4554 106.627L30.3423 167.25C16.0511 189.217 13.5151 206.836 20.8289 217.151C28.367 227.693 49.8271 227.613 79.762 216.928C59.0875 223.019 44.6715 222.203 39.2319 214.633C27.034 197.424 63.1285 150.933 119.852 110.797C176.574 70.6596 232.448 52.0723 244.648 69.2797C249.948 76.81 246.122 90.4137 233.871 107.589C253.503 83.2121 260.506 63.2825 253.135 52.7731C248.172 45.7701 238.885 41.6707 225.573 41.6115C206.756 41.5248 179.877 49.5488 145.842 68.8183H117.317L77.7349 29.2767C76.2151 27.7589 74.2357 27 72.253 27ZM111.397 80.1437C113.665 80.1437 115.504 81.9807 115.504 84.2468C115.504 86.513 113.665 88.3505 111.397 88.3505C109.128 88.3505 107.289 86.513 107.289 84.2468C107.289 81.9807 109.128 80.1437 111.397 80.1437Z" fill="#258000"/>
<path d="M225.164 66C201.114 67.6889 161.386 85.2659 121.214 113.688C88.6067 136.759 62.8386 161.926 49.1714 182.405C44.1109 191.16 36.0614 206.85 45.0582 207H184.246C189.202 207 192.255 202.925 193.193 198.062L212.544 97.7102H223.612C227.152 97.7102 230 94.8609 230 91.3243V72.1744C230 69.1769 227.944 66.6926 225.164 66ZM139.814 124.018H157.889C159.391 124.018 160.6 125.225 160.6 126.725V144.105H177.997C179.5 144.105 180.708 145.313 180.708 146.813V164.869C180.708 166.37 179.5 167.578 177.997 167.578H160.6V184.956C160.6 186.458 159.391 187.665 157.889 187.665H139.814C138.312 187.665 137.102 186.458 137.102 184.956V167.578H119.706C118.202 167.578 116.994 166.37 116.994 164.869V146.813C116.994 145.313 118.202 144.105 119.706 144.105H137.102V126.725C137.102 125.225 138.312 124.018 139.814 124.018Z" fill="#0F766E"/>
<path d="M299 196L315.4 47.4H358.2L379.7 126.8L386.9 160.3L392.9 126.8L412.8 47.4H454L472.2 196H441.7L434.4 112.7L432 70.6L422.3 113.4L398.3 197.1H373.5L347.9 113.4L337.7 70.6L334.9 112.7L328.3 196H299ZM543.311 197.6C526.178 197.6 513.044 192.5 503.911 182.3C494.778 172.1 490.211 158 490.211 140C490.211 129.2 492.278 119.533 496.411 111C500.611 102.467 506.678 95.7333 514.611 90.8C522.544 85.8 532.244 83.2667 543.711 83.2C549.511 83.1333 555.044 83.8667 560.311 85.4C565.578 86.9333 570.278 89.4333 574.411 92.9C578.544 96.3 581.844 100.833 584.311 106.5C586.844 112.1 588.144 118.967 588.211 127.1C588.211 131.167 588.144 134.933 588.011 138.4C587.878 141.867 587.578 144.833 587.111 147.3H506.611L508.611 130.8H559.811C560.144 125.4 559.844 120.667 558.911 116.6C558.044 112.467 556.311 109.267 553.711 107C551.111 104.667 547.444 103.5 542.711 103.5C538.111 103.5 534.078 104.767 530.611 107.3C527.211 109.833 524.578 114.2 522.711 120.4C520.911 126.533 520.144 135 520.411 145.8C520.678 153.067 522.078 158.9 524.611 163.3C527.211 167.633 530.711 170.767 535.111 172.7C539.578 174.567 544.744 175.5 550.611 175.5C553.811 175.5 557.311 175.233 561.111 174.7C564.911 174.167 568.511 173.467 571.911 172.6C575.311 171.667 577.911 170.733 579.711 169.8L584.811 186.4C582.344 188.4 578.944 190.267 574.611 192C570.344 193.667 565.478 195 560.011 196C554.611 197.067 549.044 197.6 543.311 197.6ZM682.431 196V182.1L680.231 180.6V105.1L681.031 104.4L680.231 76.2V33.5H710.431V196H682.431ZM649.631 197.6C641.765 197.6 634.498 195.667 627.831 191.8C621.231 187.867 615.898 181.967 611.831 174.1C607.765 166.233 605.731 156.267 605.731 144.2C605.731 131.867 608.065 121.133 612.731 112C617.398 102.8 623.931 95.7 632.331 90.7C640.731 85.7 650.598 83.2 661.931 83.2C668.798 83.2 674.431 83.9333 678.831 85.4C683.298 86.8667 686.165 88.1 687.431 89.1L680.331 108.4C678.665 107 676.298 106.033 673.231 105.5C670.165 104.9 666.665 104.6 662.731 104.6C657.931 104.6 653.598 106 649.731 108.8C645.931 111.533 642.898 115.7 640.631 121.3C638.431 126.833 637.331 133.767 637.331 142.1C637.198 153.633 639.098 161.9 643.031 166.9C647.031 171.9 652.498 174.4 659.431 174.4C663.698 174.4 667.698 173.667 671.431 172.2C675.231 170.733 678.198 169.233 680.331 167.7L684.031 182.9C682.498 184.567 680.298 186.567 677.431 188.9C674.565 191.167 670.865 193.2 666.331 195C661.798 196.733 656.231 197.6 649.631 197.6ZM742.333 196V84.7H772.833V196H742.333ZM756.033 68.6C751.099 68.6 746.933 67.0667 743.533 64C740.133 60.9333 738.433 56.9333 738.433 52C738.433 48.6667 739.333 45.6333 741.133 42.9C742.999 40.1 745.399 37.8667 748.333 36.2C751.333 34.5333 754.533 33.7 757.933 33.7C763.399 33.7 767.666 35.2667 770.733 38.4C773.866 41.4667 775.433 45.4333 775.433 50.3C775.433 55.3667 773.499 59.7 769.633 63.3C765.833 66.8333 761.299 68.6 756.033 68.6Z" fill="#258000"/>
<path d="M799 197L815.4 48.4H858.2L879.7 127.8L886.9 161.3L892.9 127.8L912.8 48.4H954L972.2 197H941.7L934.4 113.7L932 71.6L922.3 114.4L898.3 198.1H873.5L847.9 114.4L837.7 71.6L834.9 113.7L828.3 197H799ZM1025.41 198.6C1018.34 198.6 1012.14 197.167 1006.81 194.3C1001.48 191.433 997.311 187.433 994.311 182.3C991.378 177.167 989.911 171.2 989.911 164.4C989.911 157.6 991.744 151.767 995.411 146.9C999.144 142.033 1004.18 138.233 1010.51 135.5C1014.84 133.7 1019.58 132.3 1024.71 131.3C1029.91 130.3 1035.08 129.6 1040.21 129.2C1045.41 128.8 1050.24 128.6 1054.71 128.6L1059.81 134.9L1054.71 144.7C1052.31 144.7 1049.61 144.867 1046.61 145.2C1043.61 145.533 1040.71 146.033 1037.91 146.7C1035.18 147.3 1032.88 148 1031.01 148.8C1028.41 150 1026.08 151.6 1024.01 153.6C1022.01 155.6 1021.01 158.667 1021.01 162.8C1021.01 168.2 1022.51 172.2 1025.51 174.8C1028.51 177.333 1032.38 178.6 1037.11 178.6C1039.58 178.6 1042.01 178.267 1044.41 177.6C1046.88 176.933 1049.04 176.167 1050.91 175.3C1052.78 174.367 1054.04 173.5 1054.71 172.7L1060.01 179L1056.31 187.6C1053.31 190.267 1049.18 192.767 1043.91 195.1C1038.71 197.433 1032.54 198.6 1025.41 198.6ZM1085.21 197H1056.31V180.4H1054.71V120.4C1054.71 114.733 1053.21 111.033 1050.21 109.3C1047.21 107.5 1042.91 106.6 1037.31 106.6C1033.11 106.6 1028.71 106.967 1024.11 107.7C1019.58 108.433 1015.28 109.4 1011.21 110.6C1007.14 111.8 1003.74 113.1 1001.01 114.5L994.411 95.3C996.678 93.9667 1000.21 92.4 1005.01 90.6C1009.81 88.8 1015.31 87.2333 1021.51 85.9C1027.71 84.5 1033.94 83.8 1040.21 83.8C1050.48 83.8 1058.91 85 1065.51 87.4C1072.18 89.8 1077.11 93.8667 1080.31 99.6C1083.58 105.333 1085.21 113.267 1085.21 123.4V197ZM1142.57 124.4L1141.17 103C1142.37 99.8 1144.57 96.7667 1147.77 93.9C1150.97 90.9667 1154.77 88.6 1159.17 86.8C1163.57 84.9333 1168.2 84 1173.07 84C1175.07 84 1176.9 84.1 1178.57 84.3C1180.3 84.5 1181.57 84.8333 1182.37 85.3V115C1181.44 114.4 1180 113.8 1178.07 113.2C1176.14 112.6 1173.2 112.3 1169.27 112.3C1164.47 112.3 1160.34 113 1156.87 114.4C1153.4 115.733 1150.47 117.367 1148.07 119.3C1145.74 121.167 1143.9 122.867 1142.57 124.4ZM1113.87 197V85.7H1140.27L1141.97 103.1L1144.37 108.4V197H1113.87ZM1236.57 198.6C1229.77 198.6 1224.13 197.5 1219.67 195.3C1215.27 193.033 1211.97 189.467 1209.77 184.6C1207.63 179.733 1206.57 173.3 1206.57 165.3V106.5H1193.07V90.2C1198 88.8 1201.93 87.4667 1204.87 86.2C1207.87 84.9333 1210.03 82.7333 1211.37 79.6C1212.03 78.0667 1212.73 76.2667 1213.47 74.2C1214.27 72.1333 1215.1 69.9 1215.97 67.5C1216.83 65.1 1217.73 62.6667 1218.67 60.2H1237.07V85.6H1266.97V106.5H1237.07V152.4C1237.07 159.467 1237.43 164.633 1238.17 167.9C1238.9 171.1 1240.17 173.167 1241.97 174.1C1243.77 174.967 1246.37 175.4 1249.77 175.4C1251.5 175.4 1253.5 175.2 1255.77 174.8C1258.03 174.333 1260.2 173.767 1262.27 173.1C1264.33 172.433 1265.93 171.733 1267.07 171L1271.07 188.1C1269.27 189.7 1266.57 191.333 1262.97 193C1259.37 194.6 1255.27 195.933 1250.67 197C1246.07 198.067 1241.37 198.6 1236.57 198.6Z" fill="#0F766E"/>
</svg>
