<svg width="256" height="198" viewBox="0 0 256 198" fill="none" xmlns="http://www.w3.org/2000/svg">
<path d="M72.253 0C70.2688 0 68.2851 0.758901 66.7658 2.2767L57.2498 11.7852C54.2108 14.8208 54.2108 19.7077 57.2498 22.7438L102.517 67.9677C103.428 68.8782 104.826 69.8765 106.368 70.7559C103.734 72.0264 100.777 70.9562 98.0952 68.2763L71.6193 41.8183H6.40024C2.85337 41.8183 0 44.6716 0 48.2151V67.4022C0 70.9451 2.85337 73.7989 6.40024 73.7989H75.1334L18.4554 79.627L30.3423 140.25C16.0511 162.217 13.5151 179.836 20.8289 190.151C28.367 200.693 49.8271 200.613 79.762 189.928C59.0875 196.019 44.6715 195.203 39.2319 187.633C27.034 170.424 63.1285 123.933 119.852 83.7968C176.574 43.6596 232.448 25.0723 244.648 42.2797C249.948 49.81 246.122 63.4137 233.871 80.5889C253.503 56.2121 260.506 36.2825 253.135 25.7731C248.172 18.7701 238.885 14.6707 225.573 14.6115C206.756 14.5248 179.877 22.5488 145.842 41.8183H117.317L77.7349 2.2767C76.2151 0.758901 74.2357 0 72.253 0ZM111.397 53.1437C113.665 53.1437 115.504 54.9807 115.504 57.2468C115.504 59.513 113.665 61.3505 111.397 61.3505C109.128 61.3505 107.289 59.513 107.289 57.2468C107.289 54.9807 109.128 53.1437 111.397 53.1437Z" fill="#258000"/>
<path d="M225.164 39C201.114 40.6889 161.386 58.2659 121.214 86.688C88.6067 109.759 62.8386 134.926 49.1714 155.405C44.1109 164.16 36.0614 179.85 45.0582 180H184.246C189.202 180 192.255 175.925 193.193 171.062L212.544 70.7102H223.612C227.152 70.7102 230 67.8609 230 64.3243V45.1744C230 42.1769 227.944 39.6926 225.164 39ZM139.814 97.0177H157.889C159.391 97.0177 160.6 98.2251 160.6 99.7252V117.105H177.997C179.5 117.105 180.708 118.313 180.708 119.813V137.869C180.708 139.37 179.5 140.578 177.997 140.578H160.6V157.956C160.6 159.458 159.391 160.665 157.889 160.665H139.814C138.312 160.665 137.102 159.458 137.102 157.956V140.578H119.706C118.202 140.578 116.994 139.37 116.994 137.869V119.813C116.994 118.313 118.202 117.105 119.706 117.105H137.102V99.7252C137.102 98.2251 138.312 97.0177 139.814 97.0177Z" fill="#0F766E"/>
</svg>
